<?xml version="1.0" encoding="utf-8"?>
<!-- Generator: Adobe Illustrator 26.2.1, SVG Export Plug-In . SVG Version: 6.00 Build 0)  -->
<svg version="1.1" id="Layer_1" xmlns="http://www.w3.org/2000/svg" xmlns:xlink="http://www.w3.org/1999/xlink" x="0px" y="0px"
	 viewBox="0 0 1000 300" style="enable-background:new 0 0 1000 300;" xml:space="preserve">
<style type="text/css">
	.st0{clip-path:url(#SVGID_00000089545377867650078790000008034981439551149732_);}
	.st1{clip-path:url(#SVGID_00000061443113197930362200000004999650507030473365_);}
	.st2{fill:#121211;}
	.st3{clip-path:url(#SVGID_00000142168027908429094150000013100318284925469101_);}
	.st4{fill:#FF4040;}
	.st5{clip-path:url(#SVGID_00000072962008317548356850000005221354635111282069_);}
	.st6{fill:#FFFFFF;}
</style>
<g>
	<g>
		<defs>
			<rect id="SVGID_1_" y="30.5" width="1000" height="239.5"/>
		</defs>
		<clipPath id="SVGID_00000077325221435154568760000017554859672287744433_">
			<use xlink:href="#SVGID_1_"  style="overflow:visible;"/>
		</clipPath>
		<g style="clip-path:url(#SVGID_00000077325221435154568760000017554859672287744433_);">
			<g>
				<g>
					<defs>
						<path id="SVGID_00000078757264334086339630000006999831916038353546_" d="M51,30.5h898c28.2,0,51,22.8,51,51V219
							c0,28.2-22.8,51-51,51H51c-28.2,0-51-22.8-51-51V81.5C0,53.4,22.8,30.5,51,30.5z"/>
					</defs>
					<clipPath id="SVGID_00000109737805266104152660000018300709237513055664_">
						<use xlink:href="#SVGID_00000078757264334086339630000006999831916038353546_"  style="overflow:visible;"/>
					</clipPath>
					<g style="clip-path:url(#SVGID_00000109737805266104152660000018300709237513055664_);">
						<path class="st2" d="M0,30.5h1000V270H0V30.5z"/>
					</g>
				</g>
			</g>
		</g>
	</g>
</g>
<g>
	<g>
		<defs>
			<rect id="SVGID_00000004517453241299186430000001772268312089341829_" x="75.4" y="134.4" width="29.9" height="30"/>
		</defs>
		<clipPath id="SVGID_00000016057505268667780120000004267044408140404367_">
			<use xlink:href="#SVGID_00000004517453241299186430000001772268312089341829_"  style="overflow:visible;"/>
		</clipPath>
		<g style="clip-path:url(#SVGID_00000016057505268667780120000004267044408140404367_);">
			<path class="st4" d="M75.4,149.2c0-4.1,1.9-7.8,4.6-10.5s6.4-4.3,10.5-4.3s7.8,1.7,10.5,4.3s4.3,6.4,4.3,10.5s-1.4,7.9-4.1,10.6
				c-2.7,2.7-6.5,4.3-10.6,4.3s-7.6-2-10.3-4.7S75.4,153.3,75.4,149.2z"/>
		</g>
	</g>
</g>
<g>
	<g>
		<defs>
			<rect id="SVGID_00000056396958638089622730000000553814190552160655_" x="144.9" y="118.2" width="71" height="71"/>
		</defs>
		<clipPath id="SVGID_00000052094747853549542620000000014530430402861480_">
			<use xlink:href="#SVGID_00000056396958638089622730000000553814190552160655_"  style="overflow:visible;"/>
		</clipPath>
		<g style="clip-path:url(#SVGID_00000052094747853549542620000000014530430402861480_);">
			<path class="st6" d="M213,118.2h-65.7c-0.3,0-0.7,0.1-1,0.2s-0.6,0.3-0.8,0.5s-0.4,0.5-0.6,0.8c-0.1,0.3-0.2,0.6-0.2,1v45.5
				c0,0.3,0.1,0.7,0.2,1c0.1,0.3,0.3,0.6,0.6,0.8c0.2,0.2,0.5,0.4,0.8,0.5s0.6,0.2,1,0.2H165v17.7c0,0.5,0.1,1,0.4,1.4
				c0.3,0.4,0.7,0.7,1.1,0.9c0.5,0.2,1,0.2,1.5,0.1c0.5-0.1,0.9-0.3,1.3-0.7l19.5-19.5H213c0.3,0,0.7-0.1,1-0.2
				c0.3-0.1,0.6-0.3,0.8-0.5s0.4-0.5,0.5-0.8s0.2-0.6,0.2-1v-45.5c0-0.3-0.1-0.7-0.2-1c-0.1-0.3-0.3-0.6-0.5-0.8
				c-0.2-0.2-0.5-0.4-0.8-0.5C213.7,118.3,213.4,118.2,213,118.2z M210.5,163.7h-22.7c-0.7,0-1.3,0.2-1.8,0.7l-15.9,15.9v-14.1
				c0-0.3-0.1-0.7-0.2-1c-0.1-0.3-0.3-0.6-0.5-0.8s-0.5-0.4-0.8-0.5s-0.6-0.2-1-0.2h-17.7v-40.4h60.6V163.7z"/>
		</g>
	</g>
</g>
<g>
	<g transform="translate(324.400916, 124.02495)">
	</g>
</g>
<g>
	<g transform="translate(405.315069, 124.02495)">
	</g>
</g>
<g>
	<g transform="translate(488.880567, 124.02495)">
	</g>
</g>
<g>
	<path class="st6" d="M354.8,153.7h-4.7c-2.7,0-4.4-0.7-5.2-2.2c-2,1.5-4.7,2.2-8,2.2h-21.4c-0.6,5.2-2.6,9.1-6,11.8
		c-3.2,2.5-7.4,3.8-12.6,3.8c-3.4,0-6.5-0.8-9.4-2.3c-2.8-1.6-5-3.7-6.7-6.4c-1.7-2.8-2.5-6-2.5-9.5c0-3,0.5-5.9,1.4-8.7
		c0.9-2.8,2.2-5.2,3.8-7.3l5.2,3.5c-2.4,3.5-3.5,7.4-3.5,11.7c0,4.2,1.3,7.4,4,9.8c2.2,1.9,4.8,2.9,7.8,2.9c3.7,0,6.6-1.1,8.6-3.4
		c1.9-2,2.8-4.8,2.8-8.3v-27.5l7.3-0.1v8.2c2-3,4.8-5.3,8.2-6.8c2.9-1.3,6-2,9.2-2c5.8,0,10.1,2,13,5.9c2.3,3.1,3.4,7,3.4,11.6
		c0,2.7-0.4,4.8-1.3,6.5c0.5,0.3,1.2,0.5,2,0.5h4.6V153.7z M332.4,129.2c-4.3,0-8.2,2.3-11.6,6.8c-2.6,3.5-4.4,7.4-5.2,11.8h21.2
		c1.8,0,3.2-0.7,4.2-2c0.8-1.2,1.2-2.6,1.2-4.4c0-3.8-0.9-6.8-2.7-8.9C337.8,130.2,335.4,129.2,332.4,129.2z"/>
	<path class="st6" d="M366.2,153.7h-12.5v-5.9h12.5V153.7z"/>
	<path class="st6" d="M366.2,153.7h-12.5v-5.9h12.5V153.7z"/>
	<path class="st6" d="M381.6,158.1h-7.3l0.1-4.4H365v-5.9h9.3v-23.9h7.3v8.2c2.1-3.2,4.9-5.5,8.2-7c2.8-1.2,5.8-1.9,9.2-1.9
		c5.8,0,10.1,2,13,5.9c2.3,3.1,3.4,7,3.4,11.6c0,2.7-0.4,4.8-1.3,6.5c0.5,0.3,1.2,0.5,2,0.5h4.6v5.9h-4.7c-2.7,0-4.4-0.7-5.2-2.2
		c-2,1.5-4.7,2.2-8,2.2h-21.2V158.1z M398.4,129.2c-4.3,0-8.2,2.3-11.6,6.8c-2.6,3.5-4.4,7.4-5.2,11.8h21.2c1.8,0,3.2-0.7,4.2-2
		c0.8-1.2,1.2-2.6,1.2-4.4c0-3.8-0.9-6.8-2.7-8.9C403.8,130.2,401.4,129.2,398.4,129.2z"/>
	<path class="st6" d="M439.2,123.2c5.4,0,9.5,1.9,12.3,5.6c0.8,1.2,1.4,2.5,1.8,3.9c0.4,1.3,0.7,3.5,1,6.5c0.3,2.8,0.8,4.9,1.4,6.1
		c0.9,1.6,2.4,2.5,4.6,2.5h0.8v5.9h-41.3v-5.9h29.3c-0.6-1-1-2.1-1.3-3.1s-0.5-2.7-0.7-5.1c-0.3-3.1-0.9-5.5-1.9-7.1
		c-0.6-1-1.5-1.8-2.5-2.4c-1.1-0.6-2.3-0.9-3.6-0.9c-2.8,0-5.1,1.5-7,4.4l-5.6-3.2c1.2-2.3,3-4,5.2-5.3
		C433.9,123.8,436.4,123.2,439.2,123.2z M442.7,118.5h-7.3v-7.3h7.3V118.5z"/>
	<path class="st6" d="M483,153.7h-5.8c-2.7,0-4.4-0.7-5.1-2.2c-2.1,1.5-4.8,2.2-8.2,2.2h-4v-5.9h4c1.8,0,3.2-0.7,4.1-2
		c0.8-1.1,1.2-2.6,1.2-4.4v-17.5h7.3v16.7c0,2.7-0.5,4.9-1.4,6.6c0.4,0.4,1.1,0.5,2.1,0.5h5.8V153.7z M471.1,118.5H465v-7.2h6.1
		V118.5z M480.9,118.5h-6.1v-7.2h6.1V118.5z"/>
	<path class="st6" d="M504.2,123.2c8.6,0,13,4.5,13,13.4v6.2c0,8.9-4.3,13.3-13,13.3c-5.2,0-8.8-1.6-10.7-4.9
		c-1.9,1.6-4.4,2.5-7.7,2.5h-4v-5.9h4c1.8,0,3.2-0.7,4.1-2c0.8-1.1,1.2-2.6,1.2-4.4v-4.8C491.2,127.7,495.5,123.2,504.2,123.2z
		 M509.9,143.6v-7.9c0-4.4-1.9-6.6-5.6-6.6c-3.8,0-5.7,2.2-5.7,6.6v7.9c0,4.4,1.9,6.6,5.7,6.6C508,150.2,509.9,148,509.9,143.6z"/>
	<path class="st6" d="M562.4,123.2c4.5,0,8.1,1.3,10.6,4c2.4,2.5,3.6,6,3.7,10.4c-3.5,2.5-5.9,5.9-7.4,10.1h12.5v5.9h-14.4
		c-2.3,0-4.1-0.3-5.3-1c-0.5,0.6-1.7,1.2-3.4,1.9c-1.2,0.5-2.1,1-2.8,1.4c-1.2,0.7-2.1,1.6-2.8,2.8c-0.7,1.2-1,2.5-1,3.9
		c0,2.7,1,4.9,3,6.7c1.5,1.3,3.3,2.1,5.3,2.5c0.8,0.1,1.7,0.2,2.6,0.2c1.9,0,3.6-0.2,5.2-0.7c1.6-0.4,3.4-1.2,5.5-2.3l2.4,5.3
		c-4.3,2.6-8.8,3.8-13.6,3.8c-1.2,0-2.1,0-2.7-0.1c-4.4-0.4-8.1-2-10.9-4.7c-2.9-2.7-4.4-6.2-4.4-10.4c0-4.2,1.4-7.7,4.3-10.4
		c1.9-1.8,4.2-3.1,7-4c-0.5-1.1-0.9-2.1-1.4-3c-1.1-2-2.1-3.6-3.1-4.8c-0.9-1.1-2.1-2.2-3.5-3.3c0.1-5,1.7-8.8,4.7-11.3
		C555.3,124.3,558.5,123.2,562.4,123.2z M562.4,129.2c-2,0-3.6,0.7-4.9,2c-1.2,1.3-2,3.1-2.2,5.3c2.9,2,5.1,5.4,6.7,10.1
		c0.1,0.2,0.2,0.3,0.4,0.3c0.1,0,0.2-0.1,0.3-0.3c1.7-4.8,3.9-8.1,6.8-10.1c-0.2-2.6-1.1-4.5-2.7-5.8
		C565.5,129.7,564.1,129.2,562.4,129.2z"/>
	<path class="st6" d="M593.2,153.7h-12.5v-5.9h12.5V153.7z"/>
	<path class="st6" d="M593.2,153.7h-12.5v-5.9h12.5V153.7z"/>
	<path class="st6" d="M614.3,123.2c8.6,0,13,4.5,13,13.4v6.2c0,8.9-4.3,13.3-13,13.3c-5.2,0-8.8-1.6-10.7-4.9
		c-1.9,1.6-4.4,2.5-7.7,2.5h-4v-5.9h4c1.8,0,3.2-0.7,4.1-2c0.8-1.1,1.2-2.6,1.2-4.4v-4.8C601.3,127.7,605.6,123.2,614.3,123.2z
		 M620,143.6v-7.9c0-4.4-1.9-6.6-5.6-6.6c-3.8,0-5.7,2.2-5.7,6.6v7.9c0,4.4,1.9,6.6,5.7,6.6C618.1,150.2,620,148,620,143.6z"/>
	<path class="st6" d="M698.9,153.7h-4.4c-0.8,0-1.5-0.1-2.2-0.3c-0.6,5.2-2.6,9.2-6,12c-3.2,2.6-7.4,3.9-12.7,3.9
		c-3.4,0-6.5-0.8-9.4-2.3c-2.8-1.6-5-3.7-6.7-6.4c-1.7-2.8-2.5-6-2.5-9.5c0-3,0.5-5.9,1.4-8.7c0.9-2.8,2.2-5.2,3.8-7.3l5.2,3.5
		c-2.4,3.5-3.5,7.4-3.5,11.7c0,4.2,1.3,7.4,4,9.8c2.2,1.9,4.8,2.9,7.8,2.9c3.7,0,6.6-1.1,8.6-3.4c1.9-2,2.8-4.8,2.8-8.3v-40.5h7.3
		v36.5c0.4,0.2,1,0.4,1.9,0.4h4.6V153.7z"/>
	<path class="st6" d="M710.3,153.7h-12.5v-5.9h12.5V153.7z"/>
	<path class="st6" d="M710.3,153.7h-12.5v-5.9h12.5V153.7z"/>
	<path class="st6" d="M743.1,123.2c5.8,0,10.1,2,13,5.9c2.3,3.1,3.4,7,3.4,11.6c0,4.6-1.3,8.1-4,10.3c-2.1,1.8-5,2.6-8.6,2.6h-21.2
		v4.4h-7.3l0.1-4.4h-9.4v-5.9h9.3v-23.9h7.3v8.2c2-3,4.8-5.3,8.2-6.8C736.7,123.9,739.8,123.2,743.1,123.2z M742.4,129.2
		c-4.3,0-8.2,2.3-11.6,6.8c-2.6,3.5-4.4,7.4-5.2,11.8h21.2c1.8,0,3.2-0.7,4.2-2c0.8-1.2,1.2-2.6,1.2-4.4c0-3.8-0.9-6.8-2.7-8.9
		C747.8,130.2,745.5,129.2,742.4,129.2z"/>
	<path class="st6" d="M779,110.9v42.8h-7.3v-42.8H779z"/>
	<path class="st6" d="M804.8,123.2c4.6,0,7.9,1.2,10,3.6c1.9,2.2,2.9,5.5,2.9,9.8v11.2h6.5v5.9h-6.5v1.1c-0.1,5.1-1.5,8.9-4.3,11.4
		c-2.4,2-5.6,3.1-9.7,3.1c-3.7,0-7.2-0.8-10.6-2.5l2.3-5.4c2.5,1.2,4.9,1.7,7.4,1.7c5,0,7.5-2.6,7.5-7.7v-1.7h-6.4
		c-3.9,0-6.9-1.2-9-3.5c-2.1-2.3-3.1-5.6-3.1-9.9v-3.7C791.8,127.7,796.1,123.2,804.8,123.2z M804.8,129.2c-3.8,0-5.6,2.2-5.6,6.6
		v5.3c0,4.4,1.9,6.7,5.6,6.7h5.6v-12C810.4,131.4,808.5,129.2,804.8,129.2z"/>
	<path class="st6" d="M846.1,153.7h-5.8c-2.7,0-4.4-0.7-5.1-2.2c-2.1,1.5-4.8,2.2-8.2,2.2h-4v-5.9h4c1.8,0,3.2-0.7,4.1-2
		c0.8-1.1,1.2-2.6,1.2-4.4v-17.5h7.3v16.7c0,2.7-0.5,4.9-1.4,6.6c0.4,0.4,1.1,0.5,2.1,0.5h5.8V153.7z M834.2,118.5H828v-7.2h6.1
		V118.5z M844,118.5h-6.1v-7.2h6.1V118.5z"/>
	<path class="st6" d="M861.6,110.9v29.8c0,4.7-1.3,8.1-3.8,10.3c-2.1,1.8-5.1,2.8-8.9,2.8h-4v-5.9h4c1.8,0,3.2-0.7,4.1-2
		c0.8-1.1,1.2-2.6,1.2-4.4v-30.5H861.6z"/>
	<path class="st6" d="M882.2,110.9v42.8h-7.3v-42.8H882.2z"/>
</g>
</svg>
