<?xml version="1.0" encoding="utf-8"?>
<!-- Generator: Adobe Illustrator 26.2.1, SVG Export Plug-In . SVG Version: 6.00 Build 0)  -->
<svg version="1.1" id="Layer_1" xmlns="http://www.w3.org/2000/svg" xmlns:xlink="http://www.w3.org/1999/xlink" x="0px" y="0px"
	 viewBox="0 0 168.9 203.8" style="enable-background:new 0 0 168.9 203.8;" xml:space="preserve">
<style type="text/css">
	.st0{fill:#231F20;}
</style>
<g>
	<g>
		<path class="st0" d="M14.1,154.2c1.6,0,3.2,0.2,4.6,0.5s2.7,0.8,3.8,1.4c1.1,0.6,2,1.3,2.6,2.2c0.7,0.9,1.1,1.8,1.1,2.8l-4-1
			c0-1.8-0.7-3.1-2-4c-1.3-0.8-3.1-1.2-5.4-1.2c-1.5,0-2.9,0.2-4.2,0.5c-1.3,0.3-2.4,0.8-3.3,1.5c-0.9,0.6-1.7,1.3-2.2,2.2
			c-0.5,0.8-0.8,1.7-0.8,2.6c0,1.4,0.6,2.6,1.7,3.5c1.1,0.9,2.6,1.7,4.3,2.3s3.6,1.2,5.6,1.8c2,0.5,3.9,1.2,5.6,1.9
			c1.7,0.7,3.2,1.6,4.3,2.7c1.2,1.1,1.7,2.4,1.7,4.1c0,1.2-0.3,2.4-1,3.4c-0.7,1-1.6,1.9-2.8,2.7s-2.7,1.3-4.4,1.7
			c-1.7,0.4-3.6,0.6-5.6,0.6c-2.7,0-5.1-0.3-7.3-1c-2.1-0.7-3.7-1.7-4.8-2.9V176h0.3c0.2,1.5,0.7,2.8,1.5,4c0.7,1.2,1.6,2.2,2.7,3.1
			c1.1,0.9,2.3,1.5,3.7,2c1.4,0.5,2.8,0.7,4.4,0.7c1.5,0,2.9-0.2,4.2-0.6c1.3-0.4,2.4-0.9,3.4-1.6c1-0.7,1.7-1.4,2.3-2.3
			c0.6-0.9,0.9-1.7,0.9-2.7c0-1.3-0.6-2.4-1.7-3.3c-1.2-0.8-2.6-1.6-4.3-2.2c-1.7-0.6-3.6-1.2-5.6-1.8c-2-0.6-3.9-1.2-5.6-2
			c-1.7-0.8-3.2-1.7-4.3-2.8c-1.2-1.1-1.7-2.5-1.7-4.2c0-1.2,0.3-2.4,0.9-3.4c0.6-1,1.5-1.9,2.6-2.6c1.1-0.7,2.4-1.3,3.9-1.7
			C10.7,154.4,12.4,154.2,14.1,154.2z"/>
		<path class="st0" d="M30.8,156.6c0-0.7,0.2-1.3,0.7-1.7c0.5-0.4,1.1-0.7,1.9-0.7s1.5,0.2,1.9,0.7c0.5,0.4,0.7,1,0.7,1.7
			c0,0.7-0.2,1.3-0.7,1.7c-0.5,0.4-1.1,0.6-1.9,0.6s-1.5-0.2-1.9-0.6C31,157.9,30.8,157.3,30.8,156.6z M31.8,162.6l3.3-1.8l0.1,21.4
			c0,0.9,0.1,1.7,0.4,2.5c0.3,0.8,0.8,1.3,1.4,1.5l-0.1,0c-0.2,0-0.6,0-1.2-0.1c-0.6-0.1-1.1-0.3-1.7-0.5c-0.6-0.3-1.1-0.7-1.6-1.2
			s-0.7-1.2-0.7-2.1V162.6z"/>
		<path class="st0" d="M40.7,154.4l3.4-1.9v29.7c0,0.9,0.1,1.7,0.4,2.5c0.3,0.8,0.7,1.3,1.4,1.5v0c-0.2,0-0.6,0-1.2-0.1
			s-1.1-0.3-1.7-0.5c-0.6-0.3-1.1-0.7-1.6-1.2c-0.5-0.5-0.7-1.2-0.7-2.1V154.4z"/>
		<path class="st0" d="M49.6,186.2c0.7-0.2,1.1-0.7,1.4-1.5c0.3-0.8,0.4-1.6,0.4-2.5v-27.9l3.4-1.9v18.9l16.8-10.6h1.4l-14.5,9.3
			l15.1,16h-4.1l-13.4-14.4l-1.1,0.7v9.8c0,0.9-0.2,1.6-0.7,2.1s-1,0.9-1.6,1.2c-0.6,0.3-1.2,0.5-1.7,0.5S49.8,186.2,49.6,186.2
			L49.6,186.2z"/>
		<path class="st0" d="M75,177.7c0.2,0.8,0.6,1.7,1.2,2.6s1.3,1.8,2.3,2.6s2.1,1.4,3.4,2c1.3,0.5,2.8,0.8,4.6,0.8
			c1.2,0,2.3-0.1,3.4-0.4s2-0.6,2.8-1.1c0.8-0.5,1.4-1,1.9-1.6c0.5-0.6,0.7-1.3,0.7-2c0-1.1-0.5-1.9-1.5-2.6c-1-0.7-2.2-1.3-3.7-1.8
			c-1.5-0.5-3.1-1-4.8-1.5c-1.7-0.5-3.4-1-4.9-1.6c-1.5-0.6-2.7-1.4-3.7-2.2c-1-0.9-1.5-1.9-1.5-3.2c0-1,0.3-1.9,0.9-2.7
			s1.4-1.5,2.4-2.1c1-0.6,2.2-1,3.5-1.3c1.3-0.3,2.8-0.5,4.3-0.5c1.6,0,3.1,0.2,4.4,0.5c1.3,0.3,2.5,0.8,3.5,1.4
			c1,0.6,1.8,1.3,2.4,2.2c0.6,0.9,0.9,1.8,1,2.8l-4.3-1c0-1.7-0.6-3-1.8-3.9s-2.9-1.4-5.1-1.4c-1.2,0-2.3,0.1-3.3,0.4
			c-1.1,0.3-2,0.6-2.7,1c-0.8,0.4-1.4,1-1.8,1.6c-0.5,0.6-0.7,1.3-0.7,2c0,1.1,0.5,2,1.5,2.7c1,0.7,2.2,1.3,3.7,1.9
			c1.5,0.5,3.1,1.1,4.9,1.5c1.7,0.5,3.3,1,4.8,1.6c1.5,0.6,2.8,1.3,3.7,2.2c1,0.9,1.5,1.9,1.5,3.2c0,1-0.3,1.9-0.9,2.7
			c-0.6,0.8-1.4,1.5-2.4,2.1c-1.1,0.6-2.3,1-3.7,1.3c-1.4,0.3-3,0.5-4.8,0.5c-2.4,0-4.7-0.3-6.8-0.9c-2.1-0.6-3.7-1.4-4.8-2.5v-5.2
			H75z"/>
		<path class="st0" d="M115,160.8c2.2,0,4.2,0.3,6,0.9c1.8,0.6,3.3,1.5,4.6,2.6c1.3,1.1,2.3,2.4,2.9,4c0.7,1.6,1,3.3,1,5.2
			c0,1.9-0.3,3.6-1,5.2c-0.7,1.6-1.7,2.9-2.9,4c-1.3,1.1-2.8,2-4.6,2.6s-3.8,0.9-6,0.9c-2.1,0-4.1-0.3-5.9-0.9
			c-1.8-0.6-3.3-1.5-4.6-2.6c-1.3-1.1-2.3-2.5-3-4c-0.7-1.6-1-3.3-1-5.2c0-1.9,0.3-3.6,1-5.2c0.7-1.5,1.7-2.9,2.9-4
			c1.3-1.1,2.8-2,4.6-2.6C110.8,161.1,112.8,160.8,115,160.8z M103.8,173.2c0,1.7,0.3,3.2,0.8,4.7c0.6,1.5,1.3,2.8,2.3,3.9
			c1,1.1,2.2,2,3.5,2.7c1.3,0.7,2.8,1,4.3,1s3-0.3,4.3-1c1.3-0.6,2.5-1.5,3.5-2.7c1-1.1,1.8-2.4,2.4-3.9c0.6-1.5,0.9-3.1,0.9-4.7
			c0-1.7-0.3-3.2-0.9-4.7s-1.4-2.7-2.4-3.7c-1-1.1-2.2-1.9-3.6-2.5c-1.4-0.6-2.8-0.9-4.4-0.9c-1.6,0-3.1,0.3-4.4,0.9
			c-1.3,0.6-2.5,1.4-3.5,2.5c-1,1.1-1.8,2.3-2.3,3.7C104.1,170,103.8,171.5,103.8,173.2z"/>
		<path class="st0" d="M132.5,177.1v-16.3h3.4v16.4c0,2.2,0.7,4,2.1,5.4s3.4,2.1,5.9,2.1c2.1,0,4-0.5,5.7-1.5c1.6-1,3-2.4,4-4.1
			l-0.1-18.3h3.3v21.3c0,0.9,0.1,1.7,0.4,2.6c0.3,0.8,0.8,1.3,1.5,1.5l-0.1,0c-0.2,0-0.6,0-1.1-0.1c-0.6-0.1-1.1-0.3-1.7-0.5
			c-0.6-0.3-1.1-0.7-1.6-1.2c-0.5-0.5-0.7-1.2-0.7-2.1V180c-0.4,0.8-0.9,1.6-1.6,2.4c-0.7,0.8-1.6,1.4-2.6,2c-1,0.6-2,1-3.2,1.4
			c-1.2,0.3-2.4,0.5-3.7,0.5c-1.5,0-2.8-0.2-4-0.7c-1.2-0.5-2.3-1.1-3.2-1.9c-0.9-0.8-1.5-1.8-2-2.9
			C132.8,179.6,132.5,178.4,132.5,177.1z"/>
		<path class="st0" d="M162.4,154.4l3.4-1.9v29.7c0,0.9,0.1,1.7,0.4,2.5c0.3,0.8,0.7,1.3,1.4,1.5v0c-0.2,0-0.6,0-1.2-0.1
			s-1.1-0.3-1.7-0.5c-0.6-0.3-1.1-0.7-1.6-1.2c-0.5-0.5-0.7-1.2-0.7-2.1V154.4z"/>
	</g>
</g>
<g>
	<g>
		<path class="st0" d="M31.5,193.7c0.4,0,0.8,0.1,1.2,0.2c0.3,0.1,0.6,0.3,0.9,0.4s0.4,0.4,0.5,0.6s0.2,0.4,0.2,0.6
			c0,0.2,0,0.4-0.1,0.5c-0.1,0.2-0.2,0.4-0.4,0.5c-0.2,0.2-0.4,0.3-0.7,0.4s-0.6,0.1-1,0.1c0.4,0,0.8,0.1,1.1,0.2
			c0.3,0.1,0.6,0.2,0.8,0.4s0.4,0.4,0.5,0.6s0.2,0.4,0.2,0.7c0,0.2-0.1,0.5-0.2,0.7c-0.2,0.2-0.4,0.4-0.7,0.6
			c-0.3,0.2-0.7,0.3-1.1,0.4c-0.4,0.1-1,0.1-1.5,0.1h-2.7v-7H31.5z M29.2,193.8v3.1H31c0.9,0,1.5-0.1,1.9-0.4s0.6-0.6,0.6-1.1
			c0-0.2,0-0.4-0.1-0.6c-0.1-0.2-0.2-0.4-0.4-0.5c-0.2-0.2-0.4-0.3-0.7-0.4s-0.6-0.1-0.9-0.1H29.2z M29.2,197.1v3.4h2
			c0.4,0,0.8,0,1.1-0.1c0.3-0.1,0.6-0.2,0.9-0.3c0.2-0.1,0.4-0.3,0.6-0.5s0.2-0.4,0.2-0.6c0-0.2-0.1-0.4-0.2-0.6
			c-0.1-0.2-0.3-0.4-0.6-0.6s-0.6-0.3-0.9-0.4c-0.4-0.1-0.8-0.2-1.3-0.2H29.2z"/>
		<path class="st0" d="M44,193.7h0.9l2.7,3.3l2.7-3.3h0.2l-2.8,3.5v3.5h-0.8v-3.5L44,193.7z"/>
		<path class="st0" d="M77.7,193.6c0.4,0,0.8,0,1.1,0.1s0.6,0.2,0.9,0.3c0.2,0.1,0.4,0.3,0.6,0.5c0.1,0.2,0.2,0.4,0.2,0.6l-0.9-0.2
			c0-0.2,0-0.4-0.1-0.5c-0.1-0.1-0.2-0.3-0.4-0.4c-0.2-0.1-0.3-0.2-0.6-0.2c-0.2,0-0.5-0.1-0.7-0.1c-0.5,0-0.9,0.1-1.4,0.2
			s-0.8,0.4-1.1,0.7s-0.6,0.6-0.8,1s-0.3,0.8-0.3,1.3c0,0.5,0.1,0.9,0.3,1.3c0.2,0.4,0.5,0.7,0.8,1c0.4,0.3,0.8,0.5,1.2,0.7
			c0.5,0.2,1,0.2,1.5,0.2c0.4,0,0.8,0,1.2-0.1c0.4-0.1,0.7-0.2,0.9-0.4v-2.7H78v-0.3h3v2.6c-0.4,0.4-0.8,0.7-1.4,0.9
			c-0.6,0.2-1.2,0.3-1.9,0.3c-0.6,0-1.1-0.1-1.6-0.3c-0.5-0.2-1-0.4-1.3-0.7c-0.4-0.3-0.7-0.7-0.9-1.1s-0.3-0.9-0.3-1.4
			c0-0.5,0.1-1,0.3-1.4c0.2-0.4,0.5-0.8,0.9-1.1c0.4-0.3,0.8-0.5,1.3-0.7C76.6,193.7,77.1,193.6,77.7,193.6z"/>
		<path class="st0" d="M91,200.7v-7h0.7v3h5.3v-3h0.7v7h-0.7v-3.8h-5.3v3.8H91z"/>
		<path class="st0" d="M107.5,200.7l3.7-7h0.2l3.7,7h-0.8l-1.4-2.6h-3.8l-1.4,2.6H107.5z M109.2,197.9h3.6l-1.8-3.5L109.2,197.9z"/>
		<path class="st0" d="M129.7,200.5v0.1h-4.9v-7h0.7v6.8H129.7z"/>
		<path class="st0" d="M139.4,200.7l3.7-7h0.2l3.7,7h-0.8l-1.4-2.6H141l-1.4,2.6H139.4z M141.1,197.9h3.6l-1.8-3.5L141.1,197.9z"/>
	</g>
</g>
<path class="st0" d="M142,35c-2.2,3.4-6,6.8-9,8.6c-2.6,1.7-6.2,3.1-10.1,4.4c-3.6,1.1-7.2,1.8-10.9,2.2c-4.7,0.6-8.5,1.1-11.4,1.5
	c-3.5,0.4-7.3,1-11.2,1.7c-1.4,0.3-2.4,0.6-3.2,0.8c-0.5,0.1-3,1.1-3.3,3.8c-0.1,0.5,0.5,4.7,5.9,2.5c5.5-2.2,6.7-4.8,8.2-6.1
	l-0.1,0c-4,2.5-4.3,3.5-8.3,4.6c-2.4,0.6-3.4,0.2-1.4-0.9c2.6-1.4,6.5-2.8,11-4l6-1.2l0,0v0c1.2-0.2,2.5-0.4,3.9-0.6l0,0
	c0.1,0,0.1,0,0.2,0c0.1,0,0.1,0,0.2,0c1.2-0.1,2.4-0.3,3.6-0.5c0.5-0.1,0.9-0.2,1.4-0.2c21-3.9,27.9-14.8,28.8-16.4
	c1.8-3.1,2.8-5.5,2.7-5.3C144.4,30.6,144.5,31,142,35z"/>
<path class="st0" d="M104.9,70.9"/>
<path class="st0" d="M133.6,86.8c-2.7-2.8-6-5.2-9.6-7.4c-1.8,1.5-3.8,2.7-5.7,3.2c-2.3,0.7-4.1,1.1-5.3,1.2v1.2
	c0,0.5-0.1,1-0.1,1.5c4,2,7.6,4,10.6,6.4c4.5,3.6,6.7,8.2,6.7,13.8c0,3.8-1.1,7.6-3.4,11.2c-2.2,3.7-5.3,6.9-9,9.7
	c-3.8,2.8-8.2,5.1-13.3,6.8c-5.1,1.7-10.5,2.6-16.2,2.6c-6,0-11.7-1-17-3c-5.3-2-10.1-4.8-14.3-8.5c-4.2-3.7-7.7-8-10.5-13.2
	c-2.9-5.1-4.8-10.8-5.7-16.9h-1.2v27.7c4.2,5.3,10.4,9.3,18.8,12.3c8.3,2.9,17.8,4.4,28.3,4.4c7.9,0,15.1-0.9,21.8-2.6
	c6.6-1.7,12.3-4.2,17-7.3c4.7-3.1,8.4-6.9,11-11.3c2.6-4.4,3.9-9.2,3.9-14.5C140.3,97.1,138.1,91.4,133.6,86.8z"/>
<path class="st0" d="M96.5,67.9c-2.2-0.8-12-4-16.3-5.6c-4.5,2.3-8.2,4.8-10.7,7.8c-0.1,0.1-0.1,0.2-0.2,0.3
	c4.9,2.1,10.1,3.7,15.6,5.3C89,77,93.1,78,97,79.3l-0.1-10.8C96.9,68.2,96.8,68,96.5,67.9z"/>
<path class="st0" d="M79.2,56.8c-1.3,0.6-3.5,1.5-4.7,2.2c1.8,0.7,3.5,1.4,5.4,2.1c0.3-0.1,1.8-0.4,2.1-0.6
	c-0.3-0.8-0.3-1.7-0.2-2.4c0.2-1.3,0.5-2,1.2-2.8C81.3,55.8,80.8,56.1,79.2,56.8z"/>
<path class="st0" d="M135.2,54.9c-0.2-0.4-0.5-0.7-0.9-0.7c-0.4,0.1-0.7,0.3-0.7,0.7c-0.3,1-0.5,2-0.7,3c-0.2,1.1-0.6,2.3-1.1,3.7
	c-0.6,1.3-1.3,2.4-2.3,3.2c-1.1,1-2.5,1.7-4.4,2.1c0.2-0.6,0.3-1.2,0.3-1.9c0-0.5,0-1-0.1-1.6c-0.1-0.9-0.3-2-0.6-3.4
	c-0.3-0.6-0.6-0.8-1.1-0.8c-0.4,0.1-0.7,0.4-0.8,0.8c-0.3,1.3-0.5,2.5-0.7,3.9c-0.1,1.3-0.6,2.7-1.3,4.1c-0.6,1.4-1.6,2.5-3,3.5
	c-1.3,1-3.3,1.6-5.8,1.7h-0.5c-0.9,0-1.9-0.2-3.2-0.5c-1.2-0.2-2.5-0.6-3.7-1.2c-1.5-0.6-2.7-1.1-3.4-1.5L99,68.8
	c-0.4-0.2-0.7-0.3-0.9-0.3c-0.1,0-0.2,0-0.3,0.1c-0.1,0.1-0.1,0.4-0.1,0.9v9.4c0,0.4,0.5,0.7,1.4,0.9c1.2,0.3,2.3,0.8,3.4,1.5
	c1.3,0.8,2.4,1.9,3.2,3.2c1.1,1.5,1.6,3.7,1.6,6.5c0,2.1-0.6,4.2-1.7,6.3c-1.1,1.9-2.6,3.6-4.5,5.2c-2,1.4-4.2,2.6-6.7,3.3
	c-2.7,0.8-5.4,1.2-8.1,1.2c-6.6,0-11.7-1.3-15.4-4c-3.7-2.6-6.1-6.4-7-11.2c-0.4-1.9-0.6-3.9-0.6-5.9c0-1.9,0.2-3.8,0.5-5.7
	c0.7-3.3,2.4-6.6,4.3-9.3c-1.2-0.5-2.4-1-3.5-1.5c-0.1,0.1-0.5,0.6-0.6,0.8c-2,3.1-3.6,6.6-4.7,10.6c-0.7,2.6-1.1,5.2-1.1,8
	c0,1.6,0.1,3.3,0.3,5c0.5,4.2,1.6,7.7,3.2,10.8c1.5,2.9,3.4,5.4,5.9,7.6c2.3,2.1,5,3.6,8.1,4.5c2.4,0.9,5.2,1.3,8.4,1.3h1.1
	c3.8-0.3,6.9-0.9,9.2-2c2.9-1.1,5.2-2.4,6.8-4c2.1-1.8,3.7-3.6,4.9-5.4c1.3-1.9,2.3-4,3.1-6.1c1.8-4.7,2.7-10,2.7-16.1v-1.8
	c1.2,0,3.1-0.4,5.7-1.2c2.4-0.7,4.9-2.2,7.3-4.5c1.6-0.2,3.1-0.8,4.5-1.8c1.4-0.9,2.6-2,3.4-3.4c0.9-1.2,1.7-2.8,2.2-4.8
	c0.5-1.7,0.8-3.6,0.8-5.5c0-0.4,0.1-0.8,0.1-1.2c0-0.7-0.1-1.4-0.2-2.2C135.7,57.6,135.5,56.6,135.2,54.9z"/>
<path class="st0" d="M63.1,67.7c5.6,2.7,11.6,4.8,17.9,6.8l8.7-9c-5.7-1.8-11.3-3.9-16.4-6c-6.7-2.8-12.3-6-16.8-9.8
	c-4.5-3.8-6.7-8.7-6.7-14.7c0-4,1-7.7,3-11.1c2-3.5,4.8-6.5,8.5-9.1c3.6-2.6,8-4.7,13-6.1c5-1.5,10.5-2.2,16.3-2.2
	c8.8,0,15.8,1.8,21,5.3c5.2,3.5,7.8,9.1,7.8,16.8l15.5,4c-0.3-4.2-1.8-8.2-4.4-11.8c-2.6-3.7-6.1-6.8-10.3-9.3
	c-4.3-2.6-9.2-4.6-14.8-6.1c-5.6-1.5-11.6-2.2-18-2.2c-6.8,0-13.1,0.8-19,2.5c-5.9,1.7-10.9,4-15.2,7.1c-4.3,3.1-7.6,6.7-10,11
	c-2.4,4.2-3.6,9-3.6,14.2c0,7.3,2.2,13.3,6.7,18C50.7,60.5,56.3,64.5,63.1,67.7z"/>
</svg>
