<?xml version="1.0" encoding="utf-8"?>
<!-- Generator: Adobe Illustrator 26.2.1, SVG Export Plug-In . SVG Version: 6.00 Build 0)  -->
<svg version="1.1" id="Layer_1" xmlns="http://www.w3.org/2000/svg" xmlns:xlink="http://www.w3.org/1999/xlink" x="0px" y="0px"
	 viewBox="0 0 170.6 52.2" style="enable-background:new 0 0 170.6 52.2;" xml:space="preserve">
<style type="text/css">
	.st0{fill:#FFFFFF;}
</style>
<g>
	<g>
		<path class="st0" d="M14.8,3.7c1.6,0,3.2,0.2,4.6,0.5s2.7,0.8,3.8,1.4c1.1,0.6,2,1.3,2.6,2.2c0.7,0.9,1.1,1.8,1.1,2.8l-4-1
			c0-1.8-0.7-3.1-2-4c-1.3-0.8-3.1-1.2-5.4-1.2c-1.5,0-2.9,0.2-4.2,0.5C10.1,5.4,9,5.8,8.1,6.5C7.1,7.1,6.4,7.8,5.9,8.6
			c-0.5,0.8-0.8,1.7-0.8,2.6c0,1.4,0.6,2.6,1.7,3.5c1.1,0.9,2.6,1.7,4.3,2.3s3.6,1.2,5.6,1.8c2,0.5,3.9,1.2,5.6,1.9
			c1.7,0.7,3.2,1.6,4.3,2.7c1.2,1.1,1.7,2.4,1.7,4.1c0,1.2-0.3,2.4-1,3.4c-0.7,1-1.6,1.9-2.8,2.7s-2.7,1.3-4.4,1.7
			c-1.7,0.4-3.6,0.6-5.6,0.6c-2.7,0-5.1-0.3-7.3-1c-2.1-0.7-3.7-1.7-4.8-2.9v-6.5h0.3c0.2,1.5,0.7,2.8,1.5,4C5,30.7,5.9,31.8,7,32.6
			c1.1,0.9,2.3,1.5,3.7,2c1.4,0.5,2.8,0.7,4.4,0.7c1.5,0,2.9-0.2,4.2-0.6c1.3-0.4,2.4-0.9,3.4-1.6c1-0.7,1.7-1.4,2.3-2.3
			c0.6-0.9,0.9-1.7,0.9-2.7c0-1.3-0.6-2.4-1.7-3.3c-1.2-0.8-2.6-1.6-4.3-2.2c-1.7-0.6-3.6-1.2-5.6-1.8c-2-0.6-3.9-1.2-5.6-2
			c-1.7-0.8-3.2-1.7-4.3-2.8c-1.2-1.1-1.7-2.5-1.7-4.2c0-1.2,0.3-2.4,0.9-3.4C4,7.6,4.9,6.7,6,6c1.1-0.7,2.4-1.3,3.9-1.7
			C11.4,3.9,13,3.7,14.8,3.7z"/>
		<path class="st0" d="M31.4,6.1c0-0.7,0.2-1.3,0.7-1.7C32.6,4,33.2,3.8,34,3.8S35.5,4,36,4.4c0.5,0.4,0.7,1,0.7,1.7
			c0,0.7-0.2,1.3-0.7,1.7c-0.5,0.4-1.1,0.6-1.9,0.6s-1.5-0.2-1.9-0.6C31.6,7.4,31.4,6.8,31.4,6.1z M32.5,12.1l3.3-1.8l0.1,21.4
			c0,0.9,0.1,1.7,0.4,2.5c0.3,0.8,0.8,1.3,1.4,1.5l-0.1,0c-0.2,0-0.6,0-1.2-0.1c-0.6-0.1-1.1-0.3-1.7-0.5c-0.6-0.3-1.1-0.7-1.6-1.2
			s-0.7-1.2-0.7-2.1V12.1z"/>
		<path class="st0" d="M41.4,3.9L44.7,2v29.7c0,0.9,0.1,1.7,0.4,2.5c0.3,0.8,0.7,1.3,1.4,1.5v0c-0.2,0-0.6,0-1.2-0.1
			s-1.1-0.3-1.7-0.5c-0.6-0.3-1.1-0.7-1.6-1.2c-0.5-0.5-0.7-1.2-0.7-2.1V3.9z"/>
		<path class="st0" d="M50.2,35.7c0.7-0.2,1.1-0.7,1.4-1.5c0.3-0.8,0.4-1.6,0.4-2.5V3.9L55.4,2v18.9l16.8-10.6h1.4L59,19.6l15.1,16
			H70L56.5,21.2L55.4,22v9.8c0,0.9-0.2,1.6-0.7,2.1s-1,0.9-1.6,1.2c-0.6,0.3-1.2,0.5-1.7,0.5S50.5,35.7,50.2,35.7L50.2,35.7z"/>
		<path class="st0" d="M75.6,27.2c0.2,0.8,0.6,1.7,1.2,2.6s1.3,1.8,2.3,2.6c1,0.8,2.1,1.4,3.4,2c1.3,0.5,2.8,0.8,4.6,0.8
			c1.2,0,2.3-0.1,3.4-0.4s2-0.6,2.8-1.1c0.8-0.5,1.4-1,1.9-1.6c0.5-0.6,0.7-1.3,0.7-2c0-1.1-0.5-1.9-1.5-2.6c-1-0.7-2.2-1.3-3.7-1.8
			c-1.5-0.5-3.1-1-4.8-1.5c-1.7-0.5-3.4-1-4.9-1.6c-1.5-0.6-2.7-1.4-3.7-2.2c-1-0.9-1.5-1.9-1.5-3.2c0-1,0.3-1.9,0.9-2.7
			s1.4-1.5,2.4-2.1c1-0.6,2.2-1,3.5-1.3c1.3-0.3,2.8-0.5,4.3-0.5c1.6,0,3.1,0.2,4.4,0.5c1.3,0.3,2.5,0.8,3.5,1.4
			c1,0.6,1.8,1.3,2.4,2.2c0.6,0.9,0.9,1.8,1,2.8l-4.3-1c0-1.7-0.6-3-1.8-3.9S89.3,11,87.1,11c-1.2,0-2.3,0.1-3.3,0.4
			c-1.1,0.3-2,0.6-2.7,1c-0.8,0.4-1.4,1-1.8,1.6c-0.5,0.6-0.7,1.3-0.7,2c0,1.1,0.5,2,1.5,2.7c1,0.7,2.2,1.3,3.7,1.9
			c1.5,0.5,3.1,1.1,4.9,1.5c1.7,0.5,3.3,1,4.8,1.6c1.5,0.6,2.8,1.3,3.7,2.2c1,0.9,1.5,1.9,1.5,3.2c0,1-0.3,1.9-0.9,2.7
			c-0.6,0.8-1.4,1.5-2.4,2.1c-1.1,0.6-2.3,1-3.7,1.3c-1.4,0.3-3,0.5-4.8,0.5c-2.4,0-4.7-0.3-6.8-0.9c-2.1-0.6-3.7-1.4-4.8-2.5v-5.2
			H75.6z"/>
		<path class="st0" d="M115.6,10.3c2.2,0,4.2,0.3,6,0.9c1.8,0.6,3.3,1.5,4.6,2.6c1.3,1.1,2.3,2.4,2.9,4c0.7,1.6,1,3.3,1,5.2
			c0,1.9-0.3,3.6-1,5.2c-0.7,1.6-1.7,2.9-2.9,4c-1.3,1.1-2.8,2-4.6,2.6s-3.8,0.9-6,0.9c-2.1,0-4.1-0.3-5.9-0.9
			c-1.8-0.6-3.3-1.5-4.6-2.6c-1.3-1.1-2.3-2.5-3-4c-0.7-1.6-1-3.3-1-5.2c0-1.9,0.3-3.6,1-5.2c0.7-1.5,1.7-2.9,2.9-4
			c1.3-1.1,2.8-2,4.6-2.6C111.4,10.6,113.4,10.3,115.6,10.3z M104.5,22.7c0,1.7,0.3,3.2,0.8,4.7c0.6,1.5,1.3,2.8,2.3,3.9
			c1,1.1,2.2,2,3.5,2.7c1.3,0.7,2.8,1,4.3,1s3-0.3,4.3-1c1.3-0.6,2.5-1.5,3.5-2.7c1-1.1,1.8-2.4,2.4-3.9c0.6-1.5,0.9-3.1,0.9-4.7
			c0-1.7-0.3-3.2-0.9-4.7s-1.4-2.7-2.4-3.7c-1-1.1-2.2-1.9-3.6-2.5c-1.4-0.6-2.8-0.9-4.4-0.9c-1.6,0-3.1,0.3-4.4,0.9
			c-1.3,0.6-2.5,1.4-3.5,2.5c-1,1.1-1.8,2.3-2.3,3.7C104.8,19.5,104.5,21.1,104.5,22.7z"/>
		<path class="st0" d="M133.2,26.6V10.3h3.4v16.4c0,2.2,0.7,4,2.1,5.4c1.4,1.4,3.4,2.1,5.9,2.1c2.1,0,4-0.5,5.7-1.5
			c1.6-1,3-2.4,4-4.1l-0.1-18.3h3.3v21.3c0,0.9,0.1,1.7,0.4,2.6c0.3,0.8,0.8,1.3,1.5,1.5l-0.1,0c-0.2,0-0.6,0-1.1-0.1
			c-0.6-0.1-1.1-0.3-1.7-0.5c-0.6-0.3-1.1-0.7-1.6-1.2c-0.5-0.5-0.7-1.2-0.7-2.1v-2.2c-0.4,0.8-0.9,1.6-1.6,2.4
			c-0.7,0.8-1.6,1.4-2.6,2c-1,0.6-2,1-3.2,1.4c-1.2,0.3-2.4,0.5-3.7,0.5c-1.5,0-2.8-0.2-4-0.7c-1.2-0.5-2.3-1.1-3.2-1.9
			c-0.9-0.8-1.5-1.8-2-2.9C133.4,29.1,133.2,27.9,133.2,26.6z"/>
		<path class="st0" d="M163,3.9l3.4-1.9v29.7c0,0.9,0.1,1.7,0.4,2.5c0.3,0.8,0.7,1.3,1.4,1.5v0c-0.2,0-0.6,0-1.2-0.1
			s-1.1-0.3-1.7-0.5c-0.6-0.3-1.1-0.7-1.6-1.2c-0.5-0.5-0.7-1.2-0.7-2.1V3.9z"/>
	</g>
</g>
<g>
	<g>
		<path class="st0" d="M32.1,43.2c0.4,0,0.8,0.1,1.2,0.2c0.3,0.1,0.6,0.3,0.9,0.4s0.4,0.4,0.5,0.6s0.2,0.4,0.2,0.6
			c0,0.2,0,0.4-0.1,0.5c-0.1,0.2-0.2,0.4-0.4,0.5c-0.2,0.2-0.4,0.3-0.7,0.4s-0.6,0.1-1,0.1c0.4,0,0.8,0.1,1.1,0.2
			c0.3,0.1,0.6,0.2,0.8,0.4s0.4,0.4,0.5,0.6s0.2,0.4,0.2,0.7c0,0.2-0.1,0.5-0.2,0.7c-0.2,0.2-0.4,0.4-0.7,0.6
			c-0.3,0.2-0.7,0.3-1.1,0.4c-0.4,0.1-1,0.1-1.5,0.1h-2.7v-7H32.1z M29.8,43.3v3.1h1.8c0.9,0,1.5-0.1,1.9-0.4s0.6-0.6,0.6-1.1
			c0-0.2,0-0.4-0.1-0.6c-0.1-0.2-0.2-0.4-0.4-0.5c-0.2-0.2-0.4-0.3-0.7-0.4s-0.6-0.1-0.9-0.1H29.8z M29.8,46.6V50h2
			c0.4,0,0.8,0,1.1-0.1c0.3-0.1,0.6-0.2,0.9-0.3c0.2-0.1,0.4-0.3,0.6-0.5s0.2-0.4,0.2-0.6c0-0.2-0.1-0.4-0.2-0.6
			c-0.1-0.2-0.3-0.4-0.6-0.6s-0.6-0.3-0.9-0.4c-0.4-0.1-0.8-0.2-1.3-0.2H29.8z"/>
		<path class="st0" d="M44.6,43.2h0.9l2.7,3.3l2.7-3.3h0.2l-2.8,3.5v3.5h-0.8v-3.5L44.6,43.2z"/>
		<path class="st0" d="M78.4,43.1c0.4,0,0.8,0,1.1,0.1s0.6,0.2,0.9,0.3c0.2,0.1,0.4,0.3,0.6,0.5c0.1,0.2,0.2,0.4,0.2,0.6l-0.9-0.2
			c0-0.2,0-0.4-0.1-0.5c-0.1-0.1-0.2-0.3-0.4-0.4c-0.2-0.1-0.3-0.2-0.6-0.2c-0.2,0-0.5-0.1-0.7-0.1c-0.5,0-0.9,0.1-1.4,0.2
			s-0.8,0.4-1.1,0.7s-0.6,0.6-0.8,1S75,46.1,75,46.5c0,0.5,0.1,0.9,0.3,1.3c0.2,0.4,0.5,0.7,0.8,1c0.4,0.3,0.8,0.5,1.2,0.7
			c0.5,0.2,1,0.2,1.5,0.2c0.4,0,0.8,0,1.2-0.1c0.4-0.1,0.7-0.2,0.9-0.4v-2.7h-2.3v-0.3h3v2.6c-0.4,0.4-0.8,0.7-1.4,0.9
			c-0.6,0.2-1.2,0.3-1.9,0.3c-0.6,0-1.1-0.1-1.6-0.3c-0.5-0.2-1-0.4-1.3-0.7c-0.4-0.3-0.7-0.7-0.9-1.1s-0.3-0.9-0.3-1.4
			c0-0.5,0.1-1,0.3-1.4c0.2-0.4,0.5-0.8,0.9-1.1c0.4-0.3,0.8-0.5,1.3-0.7C77.3,43.2,77.8,43.1,78.4,43.1z"/>
		<path class="st0" d="M91.7,50.2v-7h0.7v3h5.3v-3h0.7v7h-0.7v-3.8h-5.3v3.8H91.7z"/>
		<path class="st0" d="M108.1,50.2l3.7-7h0.2l3.7,7h-0.8l-1.4-2.6h-3.8l-1.4,2.6H108.1z M109.8,47.4h3.6l-1.8-3.5L109.8,47.4z"/>
		<path class="st0" d="M130.3,50v0.1h-4.9v-7h0.7V50H130.3z"/>
		<path class="st0" d="M140,50.2l3.7-7h0.2l3.7,7h-0.8l-1.4-2.6h-3.8l-1.4,2.6H140z M141.7,47.4h3.6l-1.8-3.5L141.7,47.4z"/>
	</g>
</g>
</svg>
